<svg width="150" height="92" viewBox="0 0 150 92" fill="none" xmlns="http://www.w3.org/2000/svg">
<path d="M21.6064 40.1474C-15.7794 47.8483 -36.6217 -5.0405 -76 15.8982C-88.8068 22.708 -88.4968 26.2975 -101.304 33.1073C-140.682 54.046 -171.845 -12.0806 -211.223 8.85813C-224.03 15.6679 -229.394 26.2975 -242.2 33.1073C-281.579 54.0461 -308.745 -5.04049 -348.123 15.8982C-360.93 22.708 -366.293 33.3376 -379.1 40.1474C-418.478 61.0862 -445.644 1.9996 -485.023 22.9383C-497.83 29.7481 -516 92 -516 92H167C167 92 130.72 -5.37618 103.546 0.233379C92.4052 2.53332 76.5662 15.8982 76.5662 15.8982C76.5662 15.8982 43.7151 35.5934 21.6064 40.1474Z" fill="url(#paint0_linear_2_11)"/>
<defs>
<linearGradient id="paint0_linear_2_11" x1="-175" y1="-28.3536" x2="-184.834" y2="433.133" gradientUnits="userSpaceOnUse">
<stop offset="0.07705" stop-color="#0ABF95"/>
<stop offset="0.156577" stop-color="#7AE03A" stop-opacity="0.89"/>
<stop offset="0.232924" stop-color="#E8D651"/>
<stop offset="0.299727" stop-color="#FFB067" stop-opacity="0.82166"/>
<stop offset="0.39" stop-color="#FF90B3" stop-opacity="0.41083"/>
<stop offset="1" stop-color="#C78FFF" stop-opacity="0"/>
</linearGradient>
</defs>
</svg>
