<svg width="150" height="116" viewBox="0 0 150 116" fill="none" xmlns="http://www.w3.org/2000/svg">
<path d="M120.394 50.6207C157.779 60.3304 178.622 -6.35541 218 20.0456C230.807 28.6319 230.497 33.1577 243.304 41.744C282.682 68.145 313.845 -15.232 353.223 11.1689C366.03 19.7552 371.394 33.1578 384.2 41.744C423.579 68.145 450.745 -6.3554 490.123 20.0456C502.93 28.6319 508.293 42.0344 521.1 50.6207C560.478 77.0217 587.644 2.52124 627.023 28.9222C639.83 37.5085 658 116 658 116H-25C-25 116 11.2801 -6.77866 38.4535 0.29426C49.5948 3.19419 65.4338 20.0456 65.4338 20.0456C65.4338 20.0456 98.2849 44.8787 120.394 50.6207Z" fill="url(#paint0_linear_3_4)"/>
<path d="M120.394 50.6207C157.779 60.3304 178.622 -6.35541 218 20.0456C230.807 28.6319 230.497 33.1577 243.304 41.744C282.682 68.145 313.845 -15.232 353.223 11.1689C366.03 19.7552 371.394 33.1578 384.2 41.744C423.579 68.145 450.745 -6.3554 490.123 20.0456C502.93 28.6319 508.293 42.0344 521.1 50.6207C560.478 77.0217 587.644 2.52124 627.023 28.9222C639.83 37.5085 658 116 658 116H-25C-25 116 11.2801 -6.77866 38.4535 0.29426C49.5948 3.19419 65.4338 20.0456 65.4338 20.0456C65.4338 20.0456 98.2849 44.8787 120.394 50.6207Z" fill="black" fill-opacity="0.3"/>
<defs>
<linearGradient id="paint0_linear_3_4" x1="317" y1="-35.7502" x2="332.63" y2="545.969" gradientUnits="userSpaceOnUse">
<stop offset="0.07705" stop-color="#087D62"/>
<stop offset="0.156577" stop-color="#518F26" stop-opacity="0.89"/>
<stop offset="0.232924" stop-color="#9B8E36"/>
<stop offset="0.299727" stop-color="#A87344" stop-opacity="0.82166"/>
<stop offset="1" stop-color="#A65E75" stop-opacity="0"/>
</linearGradient>
</defs>
</svg>
